<svg xmlns="http://www.w3.org/2000/svg" xmlns:xlink="http://www.w3.org/1999/xlink" version="1.1" id="Livello_1" x="0px" y="0px" viewBox="5.0 -10.0 100.0 135.0" enable-background="new 0 0 100 100" xml:space="preserve" height="100px" width="100px">
<g>
	<path d="M85.3,9h-69C10.2,9,5,14.1,5,20.1v0.5v33.5C5,60.2,10.2,65,16.3,65h68.5h0.5C91.3,65,96,60.2,96,54.1v-34   C96,14.1,91.3,9,85.3,9z M95,20.6v33.5c0,5.5-4.2,9.9-9.7,9.9h-69C10.8,64,6,59.6,6,54.1v-34C6,14.6,10.8,10,16.3,10h68.5h0.5   c5.5,0,9.7,4.6,9.7,10.1V20.6z"/>
	<path d="M36.9,24.1L7,54c0.4,5.1,4.6,9,9.8,9H37l19.4-19.4L36.9,24.1z"/>
	<polygon points="41.2,63 84.5,63 62.9,41.3  "/>
	<ellipse cx="17.5" cy="24.5" rx="6.1" ry="6.3"/>
	<path d="M85.3,6h-69C8.6,6,2,12.4,2,20.1v0.5v33.5c0,6.9,5.3,12.6,12,13.7V91h3V68h67v23h3V67.9c6.9-0.8,12-6.6,12-13.8v-34   C99,12.4,93,6,85.3,6z M98,20.6v33.5C98,61.3,92.4,67,85.3,67H84H17h-0.7C9.1,67,3,61.3,3,54.1v-34C3,13,9.1,7,16.3,7h68.5h0.5   C92.4,7,98,13,98,20.1V20.6z"/>
	<path d="M50.4,20.4c0.6,0.6,1.6,1.4,1.8,1.7c0,0.1,0.1,0.2,0.2,0.3c0.4,0.4,1,0.4,1.4,0c0.2-0.2,0.3-0.5,0.3-0.8   c0-0.3-0.1-0.6-0.6-1.1c3.3,1.6,4.6,2.2,5.3,2.2c0.3,0,0.5-0.1,0.7-0.3c0.2-0.2,0.3-0.5,0.3-0.8c0-0.3-0.1-0.6-0.6-1.1   c4.8,2.3,5.3,2.5,6,1.9c0.2-0.2,0.3-0.5,0.3-0.8c0-0.3-0.1-0.6-0.6-1.1c4.8,2.3,5.3,2.5,6,1.9c0.2-0.2,0.3-0.5,0.3-0.8   c0-0.3-0.1-0.6-0.6-1.1c4.8,2.3,5.3,2.5,6,1.9c0.2-0.2,0.3-0.5,0.3-0.8c0-0.3-0.1-0.6-0.6-1.1c4.8,2.3,5.3,2.5,6,1.9   c0.2-0.2,0.3-0.5,0.3-0.8c0-0.3-0.1-0.6-0.6-1.1c4.8,2.3,5.3,2.5,6,1.9c0.2-0.2,0.3-0.5,0.3-0.8c0-0.6-0.3-0.9-2.4-2.8   c0,0,0,0-0.1-0.1c0.1,0,0.2,0,0.3,0.1c3.2,0.5,3.6,0.5,4,0.1c0.2-0.2,0.3-0.5,0.3-0.7c0-0.5-0.3-0.7-0.7-1.1   c-0.1-0.1-0.2-0.1-0.2-0.2c0,0-0.1-0.1-0.1-0.1c-0.4-0.4-1-0.4-1.4,0c-0.1,0.1-0.1,0.2-0.2,0.3c-0.5-0.1-1-0.1-1.4-0.2   c-3.2-0.5-3.6-0.5-4-0.1c-0.2,0.2-0.3,0.5-0.3,0.8c0,0.3,0.1,0.6,0.6,1.1c-4.8-2.3-5.3-2.5-6-1.9c-0.2,0.2-0.3,0.5-0.3,0.8   c0,0.3,0.1,0.6,0.6,1.1c-4.8-2.3-5.3-2.5-6-1.9c-0.2,0.2-0.3,0.5-0.3,0.8c0,0.3,0.1,0.6,0.6,1.1c-4.8-2.3-5.3-2.5-6-1.9   c-0.2,0.2-0.3,0.5-0.3,0.8c0,0.3,0.1,0.6,0.6,1.1c-4.8-2.3-5.3-2.5-6-1.9c-0.2,0.2-0.3,0.5-0.3,0.8c0,0.3,0.1,0.6,0.6,1.1   c-4.8-2.3-5.3-2.5-6-1.9c-0.2,0.2-0.3,0.5-0.3,0.8c0,0.3,0.1,0.6,0.6,1.1c-4.8-2.3-5.3-2.5-6-1.9c-0.2,0.2-0.3,0.5-0.3,0.8   C47.9,18.2,48.2,18.5,50.4,20.4z"/>
	<path d="M89.9,27.3c0.2-0.2,0.3-0.5,0.3-0.7c0-0.5-0.3-0.7-0.7-1.1c-0.1-0.1-0.2-0.1-0.2-0.2c0,0-0.1-0.1-0.1-0.1   c-0.4-0.4-1-0.4-1.4,0c-0.1,0.1-0.2,0.2-0.2,0.3c-0.5-0.1-1-0.1-1.4-0.2c-3.2-0.5-3.6-0.5-4-0.1c-0.2,0.2-0.3,0.5-0.3,0.7   c0,0.2,0,0.4,0.2,0.5c-0.1,0-0.1,0-0.2-0.1c-4.3-1.7-4.7-1.8-5.3-1.2c-0.2,0.2-0.3,0.5-0.3,0.7c0,0.2,0,0.4,0.2,0.5   c-0.1,0-0.1,0-0.2-0.1c-4.3-1.7-4.7-1.8-5.3-1.2c-0.2,0.2-0.3,0.5-0.3,0.7c0,0.2,0,0.4,0.2,0.5c-0.1,0-0.1,0-0.2-0.1   c-4.3-1.7-4.7-1.8-5.4-1.2c-0.2,0.2-0.3,0.5-0.3,0.7c0,0.2,0,0.4,0.2,0.6c-0.1,0-0.1,0-0.2-0.1c-4.3-1.7-4.8-1.8-5.4-1.2   c-0.2,0.2-0.3,0.5-0.3,0.7c0,0.2,0,0.4,0.2,0.6c-0.1,0-0.1,0-0.2-0.1c-4.3-1.7-4.8-1.8-5.4-1.2c-0.2,0.2-0.3,0.5-0.3,0.7   c0,0.2,0,0.4,0.2,0.6c-0.1,0-0.1,0-0.2-0.1c-4.3-1.7-4.8-1.8-5.4-1.2c-0.2,0.2-0.3,0.5-0.3,0.7c0,0.6,0.3,0.8,1.8,2.2   c0.4,0.4,1,0.9,1.2,1.1c0,0.1,0.1,0.2,0.2,0.3c0.4,0.4,1,0.4,1.4,0c0.2-0.2,0.3-0.5,0.3-0.7c0-0.2,0-0.4-0.2-0.6   c0.1,0,0.1,0,0.2,0.1c2.9,1.1,4,1.6,4.6,1.6c0.3,0,0.5-0.1,0.7-0.3c0.2-0.2,0.3-0.5,0.3-0.7c0-0.2,0-0.4-0.2-0.6   c0.1,0,0.1,0,0.2,0.1c4.3,1.7,4.8,1.8,5.4,1.2c0.2-0.2,0.3-0.5,0.3-0.7c0-0.2,0-0.4-0.2-0.6c0.1,0,0.1,0,0.2,0.1   c4.3,1.7,4.7,1.8,5.4,1.2c0.2-0.2,0.3-0.5,0.3-0.7c0-0.2,0-0.4-0.2-0.6c0.1,0,0.1,0,0.2,0.1c4.3,1.7,4.7,1.8,5.4,1.2   c0.2-0.2,0.3-0.5,0.3-0.7c0-0.2,0-0.4-0.2-0.6c0.1,0,0.1,0,0.2,0.1c4.3,1.7,4.7,1.8,5.3,1.2c0.2-0.2,0.3-0.5,0.3-0.7   c0-0.2,0-0.4-0.2-0.5c0.1,0,0.1,0,0.2,0.1c4.3,1.7,4.7,1.8,5.3,1.2c0.2-0.2,0.3-0.5,0.3-0.7c0-0.5-0.2-0.7-1.1-1.5   c0.1,0,0.2,0,0.3,0C89.1,27.7,89.5,27.8,89.9,27.3z"/>
	<path d="M89.6,32.4c-0.1-0.1-0.2-0.1-0.2-0.2c0,0-0.1-0.1-0.1-0.1c-0.4-0.4-1-0.4-1.4,0c-0.1,0.1-0.2,0.2-0.2,0.3   c-0.5-0.1-1-0.1-1.4-0.2c-3.2-0.5-3.6-0.5-4-0.1c-0.2,0.2-0.3,0.5-0.3,0.7c0,0.2,0,0.4,0.2,0.5c-0.1,0-0.1,0-0.2-0.1   c-4.3-1.7-4.7-1.8-5.3-1.2c-0.2,0.2-0.3,0.5-0.3,0.7c0,0.2,0,0.4,0.2,0.5c-0.1,0-0.1,0-0.2-0.1c-4.3-1.7-4.7-1.8-5.3-1.2   c-0.2,0.2-0.3,0.5-0.3,0.7c0,0.2,0,0.4,0.2,0.6c-0.1,0-0.1,0-0.2-0.1c-4.3-1.7-4.7-1.8-5.4-1.2c-0.2,0.2-0.3,0.5-0.3,0.7   c0,0.4,0.2,0.7,1,1.5c-0.1,0-0.1,0-0.2,0c-3.3-0.6-3.7-0.7-4.2-0.2c-0.2,0.2-0.3,0.5-0.3,0.7c0,0.5,0.3,0.7,0.8,1.2   c0.1,0.1,0.2,0.2,0.3,0.3c0,0.1,0.1,0.1,0.1,0.2c0.4,0.4,1,0.4,1.4,0c0.1-0.1,0.2-0.3,0.2-0.4c0.4,0.1,0.8,0.2,1.2,0.2   c3.3,0.6,3.7,0.7,4.2,0.2c0.2-0.2,0.3-0.5,0.3-0.7c0-0.2,0-0.4-0.2-0.6c0.1,0,0.1,0,0.2,0.1c2.8,1.1,4,1.6,4.6,1.6   c0.3,0,0.5-0.1,0.7-0.3c0.2-0.2,0.3-0.5,0.3-0.7c0-0.2,0-0.4-0.2-0.6c0.1,0,0.1,0,0.2,0.1c4.3,1.7,4.7,1.8,5.4,1.2   c0.2-0.2,0.3-0.5,0.3-0.7c0-0.2,0-0.4-0.2-0.6c0.1,0,0.1,0,0.2,0.1c4.3,1.7,4.7,1.8,5.3,1.2c0.2-0.2,0.3-0.5,0.3-0.7   c0-0.5-0.2-0.7-1.1-1.5c0.1,0,0.2,0,0.3,0c3.2,0.5,3.6,0.5,4.1,0.1c0.2-0.2,0.3-0.5,0.3-0.7C90.3,33,90.1,32.8,89.6,32.4z"/>
</g>
<text x="0.0" y="117.5" font-size="5.0" font-weight="bold" font-family="Helvetica Neue, Helvetica, Arial-Unicode, Arial, Sans-serif" fill="#000000">Created by Maurizio Fusillo</text><text x="0.0" y="122.5" font-size="5.0" font-weight="bold" font-family="Helvetica Neue, Helvetica, Arial-Unicode, Arial, Sans-serif" fill="#000000">from the Noun Project</text></svg>