<svg xmlns:dc="http://purl.org/dc/elements/1.1/" xmlns:cc="http://creativecommons.org/ns#" xmlns:rdf="http://www.w3.org/1999/02/22-rdf-syntax-ns#" xmlns:svg="http://www.w3.org/2000/svg" xmlns="http://www.w3.org/2000/svg" xmlns:sodipodi="http://sodipodi.sourceforge.net/DTD/sodipodi-0.dtd" xmlns:inkscape="http://www.inkscape.org/namespaces/inkscape" width="100" height="100" viewBox="0 0 80 80" version="1.1" id="svg2" inkscape:version="0.48.2 r9819" sodipodi:docname="kick.svg">
  <metadata id="metadata10">
    <rdf:RDF>
      <cc:Work rdf:about="">
        <dc:format>image/svg+xml</dc:format>
        <dc:type rdf:resource="http://purl.org/dc/dcmitype/StillImage"/>
        <dc:title/>
      </cc:Work>
    </rdf:RDF>
  </metadata>
  <defs id="defs8">
    <inkscape:path-effect is_visible="true" id="path-effect5043" effect="spiro"/>
    <inkscape:path-effect is_visible="true" id="path-effect5065" effect="spiro"/>
  </defs>
  <sodipodi:namedview pagecolor="#ffffff" bordercolor="#666666" borderopacity="1" objecttolerance="10" gridtolerance="10" guidetolerance="10" inkscape:pageopacity="0" inkscape:pageshadow="2" inkscape:window-width="1366" inkscape:window-height="706" id="namedview6" showgrid="true" inkscape:zoom="3.0345101" inkscape:cx="54.408638" inkscape:cy="36.32135" inkscape:window-x="-8" inkscape:window-y="-8" inkscape:window-maximized="1" inkscape:current-layer="svg2" inkscape:snap-grids="false">
    <inkscape:grid type="xygrid" id="grid3807"/>
  </sodipodi:namedview>
  <path style="fill:#000000;fill-opacity:1;stroke:none" d="m 43.526317,15.647728 8.953235,-0.834914 c 0.620011,-0.05781 1.217041,0.573194 1.338638,1.414824 l 3.40206,23.547427 c 0.121596,0.841628 -0.279652,1.565731 -0.899662,1.623546 l -8.953233,0.834924 c -0.620009,0.05781 -1.217042,-0.573208 -1.338639,-1.414837 L 42.626657,17.271281 c -0.121597,-0.841631 0.279651,-1.565735 0.89966,-1.623553 z" id="path3006" inkscape:connector-curvature="0"/>
  <path style="fill:#000000;fill-opacity:1;stroke:none" d="M 51.345431,8.2469821 C 51.208315,12.187173 47.903004,15.270176 43.962812,15.133059 40.02262,14.995943 36.93962,11.690631 37.076735,7.7504407 37.213852,3.8102481 40.519162,0.72724778 44.459355,0.86436431 48.399546,1.00148 51.482547,4.3067913 51.345431,8.2469821 z" id="path3008" inkscape:connector-curvature="0"/>
  <path id="path3030" d="m 44.438965,16.443875 c -0.699199,-0.36979 -1.556689,-0.105553 -1.926478,0.593646 l -5.886675,11.130548 -0.0303,0.05728 c -0.569944,1.149644 -0.121389,2.550028 1.019701,3.153521 1.141086,0.603492 2.551057,0.186039 3.180505,-0.932135 0.01035,-0.01838 0.02037,-0.0385 0.0303,-0.05727 l 5.886675,-11.130548 c 0.36979,-0.6992 0.105553,-1.556689 -0.593646,-1.92648 l -1.680082,-0.888554 z" style="fill:#000000;fill-opacity:1;stroke:none" inkscape:connector-curvature="0"/>
  <path id="path3032" d="m 40.323592,30.10303 c 0.536811,-1.164752 0.05024,-2.541581 -1.084749,-3.115838 -0.02619,-0.01321 -0.0516,-0.02379 -0.07846,-0.03616 l -11.141076,-5.1347 c -0.718341,-0.331068 -1.56013,-0.02042 -1.891201,0.697923 l -0.795517,1.726084 c -0.331069,0.718342 -0.02041,1.56013 0.697926,1.891199 l 11.141076,5.134699 c 0.02686,0.01239 0.0514,0.02484 0.07846,0.03616 1.173891,0.489856 2.53673,-0.03462 3.07354,-1.199367 z" style="fill:#000000;fill-opacity:1;stroke:none" inkscape:connector-curvature="0"/>
  <path id="path3096" d="m 51.896204,37.097008 c -0.743832,-0.356577 -1.646837,-0.05568 -2.003413,0.688153 l -5.549779,11.577022 -0.0097,0.02027 c -0.943032,1.995564 -0.121633,4.362797 1.851307,5.308586 1.972939,0.945787 4.353172,0.113348 5.31832,-1.871613 0.0031,-0.0063 0.0064,-0.01342 0.0097,-0.02027 l 5.54978,-11.577012 c 0.356576,-0.743832 0.04594,-1.626527 -0.697892,-1.983103 l -4.468323,-2.142024 z" style="fill:#000000;fill-opacity:1;stroke:none" inkscape:connector-curvature="0"/>
  <path id="path3098" d="m 47.640853,48.279576 c -2.102529,0.106804 -3.709119,1.908451 -3.601247,4.032246 l 0.932378,18.35581 c 0.04012,0.78995 0.727531,1.390318 1.517479,1.350198 l 4.745333,-0.241037 c 0.789948,-0.04017 1.391411,-0.70597 1.35129,-1.495912 L 51.653709,51.925071 C 51.545836,49.801276 49.743385,48.17278 47.640853,48.279576 z" style="fill:#000000;fill-opacity:1;stroke:none" inkscape:connector-curvature="0"/>
  <path inkscape:connector-curvature="0" style="fill:#000000;fill-opacity:1;stroke:none" d="m 51.131283,40.487975 c -0.38235,-0.692416 -1.254917,-0.960035 -1.947328,-0.57769 l -10.776702,5.950874 -0.01887,0.01045 c -1.847003,1.033338 -2.523132,3.338889 -1.508991,5.175446 1.014142,1.836549 3.335994,2.511289 5.194355,1.498548 0.0057,-0.0035 0.01248,-0.0069 0.0189,-0.01054 L 52.86936,46.584198 c 0.692408,-0.382354 0.941127,-1.244466 0.558772,-1.936882 l -2.296821,-4.159439 z" id="path4032"/>
  <path inkscape:connector-curvature="0" style="fill:#000000;fill-opacity:1;stroke:none" d="M 42.496674,47.567259 C 41.237989,45.879742 38.847045,45.547365 37.142452,46.818776 L 22.409765,57.807545 c -0.634022,0.472908 -0.750374,1.378137 -0.27746,2.012162 l 2.840806,3.808704 c 0.47291,0.634025 1.360834,0.763256 1.994853,0.290357 L 41.70066,52.929998 c 1.704585,-1.271411 2.054703,-3.675213 0.796014,-5.362739 z" id="path4034"/>
  <path inkscape:connector-curvature="0" style="fill:#000000;fill-opacity:1;stroke:none" d="m 65.644552,23.269928 c 0.536811,-1.164752 0.05024,-2.541581 -1.084747,-3.115839 -0.02619,-0.01321 -0.0516,-0.02379 -0.07846,-0.03616 l -11.14108,-5.1347 c -0.718342,-0.33107 -1.56013,-0.02042 -1.891201,0.697923 l -0.795518,1.726082 c -0.331069,0.718343 -0.02041,1.560131 0.697926,1.8912 l 11.141077,5.1347 c 0.02686,0.01237 0.0514,0.02484 0.07846,0.03615 1.173891,0.489857 2.53673,-0.03462 3.07354,-1.199366 z" id="path4040"/>
  <path inkscape:connector-curvature="0" style="fill:#000000;fill-opacity:1;stroke:none" d="m 69.233386,35.733309 c 0.746784,-0.260671 1.136706,-1.0688 0.876042,-1.815572 l -4.14959,-11.887929 -0.02136,-0.06118 c -0.454511,-1.199975 -1.785859,-1.824305 -3.004594,-1.398892 -1.218732,0.425409 -1.872374,1.742617 -1.481418,2.964774 0.0064,0.0201 0.01434,0.04112 0.02136,0.06118 l 4.149592,11.887931 c 0.260675,0.746775 1.068794,1.136705 1.815567,0.87604 l 1.794401,-0.626353 z" id="path4042"/>
  <path style="color:#000000;fill:#000000;fill-opacity:1;fill-rule:nonzero;stroke:none;stroke-width:0.40000001;marker:none;visibility:visible;display:inline;overflow:visible;enable-background:accumulate" d="m 21.467458,53.606959 c 0,2.704371 -2.192327,4.896698 -4.896703,4.896698 -2.704371,0 -4.896698,-2.192327 -4.896698,-4.896698 0,-2.704371 2.192327,-4.896703 4.896698,-4.896703 2.704376,0 4.896703,2.192332 4.896703,4.896703 z" id="path3125" inkscape:connector-curvature="0"/>
</svg>