<svg xmlns="http://www.w3.org/2000/svg" xmlns:xlink="http://www.w3.org/1999/xlink" version="1.1" id="Your_Icon" x="0px" y="0px" width="100px" height="100px" viewBox="5.0 -10.0 100.0 135.0" enable-background="new 0 0 100 100" xml:space="preserve">
<path d="M37.88,52.385L5,84.405c0,0,0.732,5.929,8.57,8.595l31.502-33.4L37.88,52.385z"/>
<path d="M49.114,42.658c0,0,19.777-20.97,27.388-26.775C80.584,12.769,91.336,7.208,95,7c-0.068-0.07-1.63,13.875-29.281,46.454  l-6.862-6.881c0,0-1.238-1.629-2.469-0.396l-1.883,1.889L49.114,42.658z"/>
<polygon points="45.763,58.909 54.576,49.519 47.802,42.726 38.569,51.692 "/>
<text x="0.0" y="117.5" font-size="5.0" font-weight="bold" font-family="Helvetica Neue, Helvetica, Arial-Unicode, Arial, Sans-serif" fill="#000000">Created by Fabio Meroni</text><text x="0.0" y="122.5" font-size="5.0" font-weight="bold" font-family="Helvetica Neue, Helvetica, Arial-Unicode, Arial, Sans-serif" fill="#000000">from the Noun Project</text></svg>