<svg xmlns="http://www.w3.org/2000/svg" xmlns:xlink="http://www.w3.org/1999/xlink" version="1.1" id="Layer_1" x="0px" y="0px" width="100px" height="92.316px" viewBox="5.0 -9.2316 100.0 124.6266" enable-background="new 0 0 100 92.316" xml:space="preserve">
<path d="M34.87,64.586h23.979v21.406c0,3.498,2.825,6.324,6.323,6.324l0,0c3.499,0,6.349-2.826,6.349-6.324V64.586  c1.578,0,2.733-1.243,2.733-2.695V45.926l-20.692-9.796H10.976l-5.494-3.108c-1.763-1.012-4.005-0.391-5.002,1.372l0,0  c-0.998,1.763-0.388,3.992,1.374,5.002l8.681,4.978v41.619c0,3.498,2.838,6.324,6.337,6.324l0,0c3.499,0,6.336-2.826,6.336-6.324  l-0.012-16.301l11.48,19.386c1.789,3.008,5.676,3.99,8.694,2.203l0,0c2.993-1.79,3.979-5.703,2.191-8.709L34.87,64.586z"/>
<path d="M88.154,12.751l-3.138-4.85l-30.632,6.146L65.9,30.567l5.272-3.296V15.176h3.032v13.775l-9.281,5.8l-4.562-6.64  l-4.245,5.062l18.57,9.112l25.123-15.273l0.043-14.275L88.154,12.751z M79.837,23.199c-1.632,0-2.955-1.324-2.955-2.956  c0-1.633,1.323-2.956,2.955-2.956c1.636,0,2.956,1.323,2.956,2.956C82.793,21.875,81.473,23.199,79.837,23.199z"/>
<polygon points="53.579,36.145 0.202,10.407 0.202,6.011 56.139,33.173 "/>
<text x="0.0" y="108.4713" font-size="4.6158" font-weight="bold" font-family="Helvetica Neue, Helvetica, Arial-Unicode, Arial, Sans-serif" fill="#000000">Created by Luis Prado</text><text x="0.0" y="113.0871" font-size="4.6158" font-weight="bold" font-family="Helvetica Neue, Helvetica, Arial-Unicode, Arial, Sans-serif" fill="#000000">from the Noun Project</text></svg>