<svg xmlns="http://www.w3.org/2000/svg" xmlns:xlink="http://www.w3.org/1999/xlink" version="1.1" x="0px" y="0px" width="100px" height="100px" viewBox="5.0 -10.0 100.0 135.0" enable-background="new 0 0 100 100" xml:space="preserve">
<g id="Captions">
</g>
<g id="Your_Icon">
	<path d="M36.463,29.19c1.665,0.146,3.521,0.845,5.01,1.589c4.198,2.111,0.117,5.773-1.925,8.485   c-1.428,1.897-7.211,8.82-7.893,9.393c-0.389,0.328-1.224,0.177-1.224-0.673C30.431,47.984,31.086,28.719,36.463,29.19z"/>
	<path d="M85.64,58.351c4.078-1.742-0.489,6.979-1.634,9.205c-1.556,3.031-3.28,3.113-6.404,3.35   c-3.119,0.231-20.306-3.071-14.606-4.672C70.5,64.125,72.603,64.074,85.64,58.351z"/>
	<path d="M99.239,16.808c-3.653,2.253-6.95,3.532-12.375,2.156c3.761-2.218,5.253-4.758,6.19-7.577   C60.157,15.858,45.354,38.17,39.693,44.742c-4.626,5.376-9.825,12.016-14.47,15.817c-3.026-0.227-14.69-3.597-24.699,5.614   c-3.158,3.21,8.634,7.602,17.338,7.58c-0.905,8.024,1.646,17.99,5.238,15.985c9.528-5.954,8.2-15.27,8.779-20.011   c4.767-2.871,26.579-6.02,34.371-8.437c8.146-2.526,14.114-4.499,20.081-8.143C104.599,41.998,99.098,16.528,99.239,16.808z    M89.96,37.729c-0.28,0.837-1.061,1.367-1.897,1.367c-0.21,0-0.424-0.033-0.634-0.104l-2.605-0.87L84,40.644   c-0.212,0.649-0.726,1.109-1.334,1.291c-0.188,0.061-0.388,0.094-0.59,0.094s-0.407-0.031-0.609-0.1   c-0.253-0.084-0.476-0.217-0.664-0.383c-0.599-0.511-0.865-1.349-0.605-2.143l0.832-2.548l-2.494-0.833   c-1.048-0.35-1.613-1.483-1.264-2.531c0.352-1.047,1.486-1.614,2.531-1.263l2.468,0.824l0.767-2.347   c0.343-1.049,1.466-1.624,2.522-1.281c0.012,0.004,0.021,0.011,0.033,0.015c0.017,0.005,0.034,0.006,0.052,0.012   c1.006,0.336,1.548,1.424,1.21,2.429v0c-0.007,0.022-0.008,0.044-0.015,0.066l-0.774,2.373l2.631,0.879   C89.744,35.548,90.31,36.681,89.96,37.729z"/>
</g>
<text x="0.0" y="117.5" font-size="5.0" font-weight="bold" font-family="Helvetica Neue, Helvetica, Arial-Unicode, Arial, Sans-serif" fill="#000000">Created by Gemma Garner</text><text x="0.0" y="122.5" font-size="5.0" font-weight="bold" font-family="Helvetica Neue, Helvetica, Arial-Unicode, Arial, Sans-serif" fill="#000000">from the Noun Project</text></svg>