<svg xmlns="http://www.w3.org/2000/svg" xmlns:xlink="http://www.w3.org/1999/xlink" version="1.1" id="Layer_1" x="0px" y="0px" width="100px" height="100px" viewBox="0 0 100 100" enable-background="new 0 0 100 100" xml:space="preserve">
<g>
	<path d="M76.25,53.562c-2.5-5-2.529-5-2.529-7.499c0-1.126-2.803-2.538-2.5-3.751c1.25-5,0.029-8.75,0.029-8.75   c5-2.5,0-12.187,0-10c0,7.5-5,5-5,5c-5-2.5-11.25-5-18.75-6.25c-9.863-1.644-20,0.038-20,0.038c-1.25-3.75-7.393-6.035-6.25-3.75   c1.25,2.5,0,5,0,5c-6.25,0-8.75,5.725-10,8.225s-5,1.373-5,2.5c0,2.5,1.304,5.046,2.5,5.525c6.25,2.5,12.5,0.725,12.5,0.725   s1.25,1.25,2.5,2.5c1.25,1.249-4.172,1.734-5,2.5c-0.725,0.671-2.5,2.5-2.5,3.75c0,1.288,4.548,2.416,5,1.25   c1.25-3.225,6.099-2.341,8.75-3.225c3.75-1.25,0.635-4.58,1.575-4.275C52.5,49.85,56.25,41.062,59.971,46.063   c3.73,5.014,6.531,2.886,8.75,3.75c1.863,0.726,3.75,4.999,5,6.25C74.214,56.558,76.562,54.188,76.25,53.562z M16.25,31.825   c-0.691,0-1.25-0.56-1.25-1.25c0-0.69,0.559-1.25,1.25-1.25s1.25,0.56,1.25,1.25C17.5,31.265,16.941,31.825,16.25,31.825z"/>
	<path d="M91.25,43.562c-0.366,0-0.73-0.16-0.977-0.469c-4.572-5.715-12.693-5.781-12.773-5.781c-0.691,0-1.25-0.56-1.25-1.25   c0-0.69,0.559-1.25,1.25-1.25c0.381,0,9.412,0.077,14.727,6.72c0.43,0.539,0.342,1.326-0.195,1.756   C91.799,43.473,91.523,43.562,91.25,43.562z"/>
	<path d="M87.5,48.562c-0.32,0-0.64-0.122-0.884-0.366c-3.346-3.345-7.822-3.384-7.866-3.384c-0.691,0-1.25-0.56-1.25-1.25   c0-0.69,0.559-1.25,1.25-1.25c0.225,0,5.564,0.047,9.634,4.116c0.488,0.488,0.488,1.279,0,1.768   C88.14,48.44,87.82,48.562,87.5,48.562z"/>
	<path d="M90,59.812v3.75H67.5v-3.75h-5v3.75H38.75v-3.75h-5v3.75H10v-3.75H5v22.5h5v-3.75h23.75v3.75h5v-3.75H62.5v3.75h5v-3.75H90   v3.75h5v-22.5H90z M10,73.562v-5h23.75v5H10z M38.75,73.562v-5H62.5v5H38.75z M90,73.562H67.5v-5H90V73.562z"/>
</g>
</svg>