<svg xmlns="http://www.w3.org/2000/svg" xmlns:xlink="http://www.w3.org/1999/xlink" version="1.1" x="0px" y="0px" width="40.028px" height="100px" viewBox="2.0014 -10.0 40.028 135.0" enable-background="new 0 0 40.028 100" xml:space="preserve">
<g id="Layer_1">
	<g>
		<path d="M7.23,80.652c0,0-0.021,0.862-0.021,0.872L0.262,95.178c-0.602,1.182-0.13,2.628,1.051,3.228    c1.182,0.601,2.627,0.13,3.229-1.052l5.196-10.221l-0.076-2.271L7.23,80.652z"/>
		<path d="M6.524,42.832l4.282-3.024c0.052-0.158,2.81-7.447,2.81-7.447c-1.14-1.048-2.655-1.694-4.326-1.694    c-3.535,0-6.4,2.866-6.4,6.4C2.89,39.609,4.376,41.799,6.524,42.832z"/>
		<path d="M23.875,30.61l-2.318,2.773v-3.324l0,0l6.399-7.659l-2.89-7.377l-3.51,5.639v-4.032l3.733-6.005l-3.733-6.389V1.547    c0-0.854-0.48-1.547-1.067-1.547c-1.066,0-1.055,1.579-1.066,1.6c0,0.533,0,22.973,0,22.973c-0.462,0.286-0.86,0.757-1.087,1.358    c0,0-5.697,15.189-5.75,15.232L4.98,46.528c-1.152,1.034-1.824,2.57-1.824,4.405v18.133c0,1.621,0.651,3.082,1.718,4.149    c0.287,0.288,0.619,0.555,0.959,0.769l1.494,2.569l4.448,7.702l0.001,0.001l0.447,13.423c0.044,1.324,1.154,2.364,2.479,2.319    c1.325-0.044,2.363-1.154,2.319-2.479l-0.507-15.191c-0.017-0.499-0.187-0.957-0.46-1.332l-3.234-7.46    c1.536-1.003,2.069-3.136,2.069-4.47V50.934c0-1.621-0.651-3.083-1.718-4.15c-0.255-0.255,3.243-4.885,3.393-5.269l2.858-7.545    V56.98c-0.192-0.093-0.396-0.173-0.618-0.224l-1.781-0.402v3.958c0,0,1.376,0.284,1.589,0.284c0.286,0,0.559-0.048,0.811-0.13    v1.982c0,0.855,0.478,1.551,1.066,1.551c0.59,0,1.067-0.695,1.067-1.551v-21.02v-0.004l3.467-4.892L23.875,30.61z"/>
		<path d="M23.689,3.138l4.092,7.521l-1.31,2.103L30.404,22.8l-4.767,5.693l1.653,8.53l-3.602,5.081v3.881    c4.46,1.945,12.516,6.074,13.333,10.814C38.312,64.272,48.063,23.685,23.689,3.138z"/>
	</g>
</g>
<g id="Layer_3" display="none">
</g>
<g id="Layer_4">
</g>
<g id="Layer_6">
</g>
<text x="0.0" y="117.5" font-size="5.0" font-weight="bold" font-family="Helvetica Neue, Helvetica, Arial-Unicode, Arial, Sans-serif" fill="#000000">Created by Claire Jones</text><text x="0.0" y="122.5" font-size="5.0" font-weight="bold" font-family="Helvetica Neue, Helvetica, Arial-Unicode, Arial, Sans-serif" fill="#000000">from the Noun Project</text></svg>