<svg xmlns="http://www.w3.org/2000/svg" xmlns:xlink="http://www.w3.org/1999/xlink" version="1.1" id="&#1057;&#1083;&#1086;&#1081;_1" x="0px" y="0px" viewBox="5.0 -10.0 100.0 135.0" enable-background="new 0 0 100 100" xml:space="preserve" height="100px" width="100px">
<path d="M13.11,18.232c-0.648-0.575-1.55-0.772-2.378-0.524c-0.83,0.25-1.471,0.911-1.696,1.748l-2.588,9.659  c-0.245,0.915,0.048,1.889,0.756,2.518l8.365,7.418c0.291,0.257,0.637,0.444,1.012,0.544l22.298,5.975l-7.305,7.063  c-0.647,0.626-0.908,1.552-0.682,2.424c0.226,0.872,0.903,1.555,1.773,1.788l9.659,2.588c0.212,0.057,0.43,0.085,0.647,0.085  c0.359,0,0.718-0.078,1.049-0.23l4.076-1.884c0.293,0.676,0.871,1.221,1.637,1.426c1.334,0.357,2.705-0.434,3.062-1.768  c0.163-0.609,0.077-1.222-0.181-1.746l8.309-3.84L77.435,55.9c0,0,0,0,0,0c-0.357,1.334,0.434,2.705,1.768,3.062  s2.705-0.434,3.062-1.768c0,0,0,0,0,0l1.932,0.518c0.636,0.171,1.291,0.257,1.945,0.257c3.674,0,6.785-2.639,7.396-6.273  c0.633-3.761-1.856-7.507-5.666-8.528L64.147,36.81L54.106,21.82c-0.337-0.503-0.845-0.867-1.43-1.024l-9.659-2.588  c-0.859-0.229-1.779,0.015-2.411,0.644c-0.632,0.628-0.881,1.546-0.654,2.408l2.568,9.757l-21.487-5.757L13.11,18.232z   M50.475,25.383l6.338,9.462l-8.731-2.339l-2.198-8.354L50.475,25.383z M86.577,47.997c1.348,0.361,2.239,1.621,2.029,2.869  c-0.241,1.435-1.693,2.399-3.116,2.016l-24.148-6.47c-0.564-0.15-1.165-0.1-1.696,0.146l-16.902,7.812l-4.52-1.211l7.305-7.063  c0.647-0.626,0.908-1.552,0.682-2.424c-0.226-0.872-0.903-1.555-1.773-1.788l-25.993-6.965l-6.768-6.001l1.142-4.26l5.338,4.734  c0.291,0.257,0.637,0.444,1.012,0.544L86.577,47.997z"/>
<path d="M92.5,70.397c-2.625,0-3.817-1.01-5.467-2.408c-1.889-1.601-4.24-3.592-8.698-3.592c-4.458,0-6.808,1.992-8.697,3.593  c-1.649,1.397-2.841,2.407-5.464,2.407c-2.625,0-3.817-1.01-5.468-2.408c-1.889-1.601-4.241-3.592-8.699-3.592  c-4.458,0-6.808,1.992-8.697,3.593c-1.649,1.397-2.841,2.407-5.465,2.407c-2.627,0-3.819-1.01-5.47-2.408  c-1.89-1.601-4.243-3.592-8.702-3.592s-6.812,1.992-8.702,3.592c-1.651,1.398-2.843,2.408-5.47,2.408c-1.381,0-2.5,1.119-2.5,2.5  s1.119,2.5,2.5,2.5c4.459,0,6.812-1.992,8.702-3.592c1.651-1.398,2.844-2.408,5.47-2.408s3.819,1.01,5.47,2.408  c1.89,1.601,4.242,3.592,8.702,3.592c4.457,0,6.808-1.992,8.697-3.593c1.649-1.397,2.841-2.407,5.465-2.407  c2.625,0,3.817,1.01,5.468,2.408c1.889,1.601,4.241,3.592,8.699,3.592c4.457,0,6.808-1.992,8.697-3.593  c1.649-1.397,2.841-2.407,5.465-2.407c2.625,0,3.817,1.01,5.466,2.407c1.89,1.601,4.241,3.593,8.699,3.593  c1.381,0,2.5-1.119,2.5-2.5S93.881,70.397,92.5,70.397z"/>
<path d="M92.5,80.397c-2.625,0-3.817-1.01-5.467-2.408c-1.889-1.601-4.24-3.592-8.698-3.592c-4.458,0-6.808,1.992-8.697,3.593  c-1.649,1.397-2.841,2.407-5.464,2.407c-2.625,0-3.817-1.01-5.468-2.408c-1.889-1.601-4.241-3.592-8.699-3.592  c-4.458,0-6.808,1.992-8.697,3.593c-1.649,1.397-2.841,2.407-5.465,2.407c-2.627,0-3.819-1.01-5.47-2.408  c-1.89-1.601-4.243-3.592-8.702-3.592s-6.812,1.992-8.702,3.592c-1.651,1.398-2.843,2.408-5.47,2.408c-1.381,0-2.5,1.119-2.5,2.5  s1.119,2.5,2.5,2.5c4.459,0,6.812-1.992,8.702-3.592c1.651-1.398,2.844-2.408,5.47-2.408s3.819,1.01,5.47,2.408  c1.89,1.601,4.242,3.592,8.702,3.592c4.457,0,6.808-1.992,8.697-3.593c1.649-1.397,2.841-2.407,5.465-2.407  c2.625,0,3.817,1.01,5.468,2.408c1.889,1.601,4.241,3.592,8.699,3.592c4.457,0,6.808-1.992,8.697-3.593  c1.649-1.397,2.841-2.407,5.465-2.407c2.625,0,3.817,1.01,5.466,2.407c1.89,1.601,4.241,3.593,8.699,3.593  c1.381,0,2.5-1.119,2.5-2.5S93.881,80.397,92.5,80.397z"/>
<text x="0.0" y="117.5" font-size="5.0" font-weight="bold" font-family="Helvetica Neue, Helvetica, Arial-Unicode, Arial, Sans-serif" fill="#000000">Created by Arthur Shlain</text><text x="0.0" y="122.5" font-size="5.0" font-weight="bold" font-family="Helvetica Neue, Helvetica, Arial-Unicode, Arial, Sans-serif" fill="#000000">from the Noun Project</text></svg>