<svg xmlns="http://www.w3.org/2000/svg" xmlns:xlink="http://www.w3.org/1999/xlink" version="1.1" id="Layer_1" x="0px" y="0px" width="100px" height="100px" viewBox="5.0 -10.0 100.0 135.0" enable-background="new 0 0 100 100" xml:space="preserve">
<g>
	<polygon points="17.296,12.913 17.297,12.912 17.299,12.911  "/>
	<polygon points="35.472,45.883 35.475,45.882 35.488,45.879  "/>
	<path d="M94.79,48.015c-0.004-0.548-0.116-1.105-0.348-1.629h0.001c-0.001-0.002-0.004-0.004-0.005-0.006s-0.002-0.003-0.003-0.005   l0,0c-0.215-0.488-0.484-0.872-0.688-1.164l-0.002-0.002l-2.421-3.43L90.7,40.602c-0.128-0.481-0.624-2.337-1.225-4.411   c-0.337-1.157-0.704-2.378-1.063-3.472c-0.358-1.096-0.699-2.05-1.014-2.729c-0.13-0.279-0.308-0.589-0.498-0.898   c-0.195-0.31-0.392-0.604-0.583-0.842c-3.101-3.837-6.814-8.029-9.738-10.988c-0.185-0.187-0.588-0.594-1.164-1.059   c-0.578-0.468-1.34-1.004-2.275-1.477c-0.816-0.412-1.676-0.71-2.456-0.938c-0.779-0.226-1.481-0.38-1.955-0.483h0.002   c-0.152-0.033-0.278-0.061-0.362-0.081l-0.003-0.001c-4.057-0.968-10.49-2.361-17.046-3.515c-3.279-0.577-6.588-1.094-9.647-1.468   c-3.061-0.374-5.869-0.605-8.176-0.605h-0.051c-0.282,0-0.586,0.029-0.916,0.081c-0.493,0.078-1.041,0.208-1.58,0.393   c-0.538,0.188-1.067,0.424-1.535,0.769c-0.173,0.13-0.311,0.266-0.463,0.426C28.69,9.58,28.405,9.925,28.1,10.311   c-0.731,0.931-1.563,2.102-2.135,2.924c-0.18-0.03-0.362-0.059-0.541-0.089l-0.007-0.001l-2.872-0.427l-1.465-0.203l-0.698-0.093   h-0.003l-0.358-0.046l-0.183-0.023v0c-0.135-0.018-0.24-0.024-0.346-0.026h0.002h-0.062c-0.731-0.001-1.476,0.187-2.136,0.585   c-0.348,0.211-0.648,0.472-0.903,0.759l-0.005,0.006l-0.005,0.005c-0.105,0.122-0.221,0.269-0.333,0.441l-0.001-0.001   c-0.005,0.006-0.006,0.01-0.011,0.015c-0.001,0.002-0.003,0.004-0.005,0.007h0.001c-0.028,0.043-0.057,0.088-0.075,0.118   l-0.04,0.069l-0.003,0.005l-0.007,0.011c-0.067,0.116-0.104,0.192-0.121,0.222l-0.007,0.017l-0.009,0.016   c-0.302,0.61-0.457,1.28-0.457,1.955c0,0.059,0,0.122,0.004,0.186v0.005c0.03,0.683,0.196,1.373,0.548,2.04l-0.001-0.002   l0.014,0.026l0.047,0.09l0.093,0.115l0.006,0.008l13.225,16.622l3.309,4.159l0.826,1.04l0.414,0.519l0.207,0.259l0.021,0.027   l0.268,0.296l0.009,0.009c0.61,0.662,1.232,1.316,1.873,1.962l0.974,0.959l-0.006-0.004c0.277,0.27,0.581,0.561,0.938,0.844   c-0.865,0.036-1.722,0.081-2.607,0.166l-0.012,0.002c-1.894,0.193-3.924,0.558-5.82,1.597l-0.012,0.007l-0.011,0.005   c-1.669,0.974-3.165,2.012-4.692,3.01L6.503,62.561l-0.018,0.012l-0.042,0.029l-0.05,0.039l-0.005,0.004   c-0.401,0.326-0.728,0.734-0.958,1.18l-0.008,0.014l0.004-0.008c-0.207,0.404-0.338,0.871-0.34,1.381   c0,0.131,0.011,0.266,0.031,0.402H5.116c0.001,0.004,0.002,0.008,0.003,0.012c0,0.002,0,0.006,0.001,0.01h0.001   c0.01,0.072,0.023,0.152,0.043,0.234l0.001,0.002l0.026,0.1l0.005,0.025l0.025,0.078h0.001l0.033,0.109l0.014,0.043l0.075,0.186   l0.005,0.012l0.007,0.016c0.115,0.266,0.275,0.533,0.48,0.768c0.2,0.234,0.438,0.438,0.707,0.605l0.011,0.004l0.007,0.006   c0.105,0.059,0.233,0.131,0.391,0.197c0.129,0.053,0.274,0.096,0.425,0.133l-0.001,0.002l1.438,0.367   c0.395,0.953,1.26,3.012,2.277,5.219c0.629,1.363,1.316,2.785,1.992,4.043c0.68,1.264,1.333,2.354,1.967,3.121l0.002,0.004   c0.048,0.057,0.115,0.146,0.198,0.258l0.001,0.004c0.304,0.41,0.803,1.096,1.645,1.688c0.517,0.361,1.087,0.645,1.549,0.854   c0.23,0.107,0.433,0.191,0.581,0.252s0.252,0.1,0.264,0.104l0.063,0.023l35.008,8.086l0.196,0.027l0.05,0.004l0.049,0.002   c0.127,0.004,0.729,0.023,1.423,0.023c0.369,0,0.766-0.004,1.136-0.021c0.375-0.016,0.711-0.041,1.019-0.096   c0.291-0.053,0.588-0.145,0.914-0.25c0.97-0.32,2.134-0.809,2.314-0.885l-0.001,0.002l0.066-0.029l0.087-0.037L79.6,79.006   c0.16-0.098,0.608-0.381,1.094-0.713c0.245-0.168,0.5-0.35,0.733-0.529c0.238-0.18,0.449-0.352,0.64-0.547   c0.136-0.139,0.241-0.277,0.35-0.426c0.315-0.441,0.625-0.969,0.747-1.18l0.004-0.006l5.192-9.322   c0.089-0.105,0.266-0.311,0.478-0.561c0.304-0.355,0.674-0.787,0.939-1.094c0.646-0.746,1.098-1.645,1.312-2.598l0.003-0.012   l0.001-0.008c0.064-0.322,0.155-0.713,0.156-1.199c0-0.098-0.003-0.195-0.012-0.295l-0.001-0.008   c-0.051-0.57-0.223-1.072-0.42-1.504l-0.003-0.008c-0.405-0.857-0.955-1.561-1.505-2.178l-0.006-0.004h0.001   c-0.232-0.256-0.477-0.498-0.723-0.738c0.839-0.496,1.676-1.018,2.496-1.596h0.001c0.675-0.475,1.254-1.008,1.799-1.58l0.007-0.01   c0.566-0.607,1.103-1.342,1.453-2.248l0.005-0.011c0.176-0.474,0.253-0.903,0.319-1.268l0.003-0.013l0.001-0.006   c0.055-0.346,0.126-0.764,0.127-1.252L94.79,48.015z M10.313,66.799l-2.435-0.621H7.876l0,0c-0.04-0.01-0.067-0.016-0.088-0.021   c-0.028-0.01-0.063-0.025-0.097-0.039c-0.022-0.012-0.053-0.027-0.093-0.051c-0.082-0.051-0.153-0.111-0.216-0.186   c-0.03-0.033-0.062-0.076-0.088-0.119c-0.021-0.037-0.044-0.078-0.068-0.135l-0.038-0.092L7.18,65.51l-0.013-0.041l-0.009-0.031   l-0.012-0.045l-0.011-0.057l-0.001-0.01c-0.011-0.074-0.004-0.148,0.005-0.225c0.003-0.027,0.006-0.055,0.011-0.082   c0.02-0.086,0.047-0.17,0.091-0.256c0.039-0.074,0.075-0.135,0.114-0.189c0.049-0.068,0.104-0.139,0.161-0.197   c0.044-0.045,0.094-0.094,0.151-0.145l3.069-2.01L26.044,52.21l2.308-1.496c0.335-0.214,0.67-0.443,1.004-0.672   c0.42-0.265,0.845-0.525,1.277-0.777c1.516-0.833,5.023-1.354,5.023-1.354l0.008-0.001c1.076-0.146,2.497-0.344,3.381-0.415   s4.444-0.327,4.444-0.327s-2.523-1.577-3.999-2.938c-1.478-1.361-1.269-1.129-1.842-1.723l-0.028-0.026   c-0.522-0.528-1.031-1.069-1.537-1.613c-0.093-0.1-0.189-0.195-0.281-0.294l-0.008-0.009l-0.213-0.234l-0.123-0.154l-0.063-0.081   l-0.414-0.519l-0.825-1.041l-2.482-3.119l-0.827-1.04l-6.826-8.58l-6.367-8.003c-0.033-0.066-0.063-0.131-0.088-0.194   c-0.01-0.021-0.021-0.041-0.028-0.065c-0.005-0.011-0.009-0.023-0.012-0.035c-0.052-0.144-0.092-0.297-0.122-0.453   c-0.021-0.124-0.037-0.253-0.046-0.396c-0.002-0.075,0.001-0.148,0.005-0.223c0.001-0.033,0.003-0.065,0.006-0.098   c0.006-0.062,0.017-0.123,0.026-0.186c0.006-0.034,0.011-0.067,0.019-0.1c0.016-0.071,0.036-0.142,0.06-0.211   c0.005-0.02,0.011-0.041,0.017-0.06c0.031-0.09,0.068-0.179,0.111-0.267c0.001-0.001,0.002-0.003,0.002-0.004   c0.032-0.068,0.07-0.132,0.109-0.196l0,0l0.023-0.037l0.009-0.012l0.007-0.011c0.018-0.028,0.036-0.052,0.054-0.077   c0.023-0.033,0.047-0.063,0.071-0.093c0.016-0.02,0.029-0.038,0.05-0.062c0.042-0.046,0.086-0.087,0.132-0.129   c0.231-0.212,0.509-0.368,0.814-0.451c0.144-0.039,0.297-0.058,0.453-0.065c0.044-0.002,0.086-0.007,0.13-0.007   c0.05,0.002,0.074,0.003,0.116,0.009h0.001l0.188,0.023L20,14.428l0.115,0.015l0.714,0.095l0.936,0.129l0.48,0.067l0,0l2.861,0.425   l0,0c0.943,0.141,1.881,0.321,2.815,0.487c0.473,0.066,0.945,0.129,1.409,0.21c0.229,0.04,0.467,0.084,0.682,0.134   c0.194,0.047,0.417,0.13,0.631,0.218c0.434,0.176,0.866,0.38,1.292,0.591c0.207,0.107,0.44,0.213,0.613,0.33   c0.173,0.116,0.345,0.281,0.502,0.449c0.627,0.693,1.15,1.514,1.612,2.355c-0.358-0.893-0.758-1.779-1.342-2.582   c-0.152-0.199-0.309-0.39-0.519-0.567c-0.211-0.173-0.405-0.29-0.611-0.43c-0.407-0.266-0.817-0.524-1.252-0.765   c-0.22-0.12-0.436-0.236-0.697-0.336c-0.246-0.089-0.477-0.16-0.714-0.232c-0.472-0.14-0.941-0.269-1.413-0.383l-0.021-0.004   c1.198-1.716,2.504-3.462,2.843-3.715c0.523-0.389,1.84-0.736,2.511-0.738c8.773-0.013,26.299,3.604,34.328,5.52   c0.107,0.026,0.246,0.056,0.405,0.091c0.879,0.193,2.515,0.554,3.813,1.208c1.489,0.753,2.456,1.731,2.782,2.063   c2.848,2.881,6.511,7.015,9.56,10.788c0.213,0.264,0.607,0.899,0.754,1.213c0.595,1.282,1.519,4.352,2.217,6.811l-1.779-2.506   l-2.467-3.47c-0.422-0.583-0.795-1.147-1.259-1.746c-0.442-0.563-0.893-1.118-1.353-1.666c-0.92-1.095-1.87-2.168-2.911-3.177   c-0.525-0.502-1.064-0.993-1.704-1.421c-0.314-0.216-0.707-0.402-1.05-0.527c-0.35-0.132-0.695-0.242-1.042-0.348   c-2.771-0.804-5.552-1.359-8.348-1.917c-2.789-0.537-5.58-1.063-8.389-1.538c-0.709-0.084-1.419-0.154-2.132-0.216   c-0.354-0.03-0.714-0.059-1.074-0.078l-0.271-0.012c-0.099-0.005-0.202-0.003-0.298,0.001c-0.194,0.012-0.379,0.039-0.561,0.069   c-0.367,0.065-0.725,0.155-1.077,0.292c-0.177,0.072-0.341,0.143-0.523,0.274c-0.161,0.112-0.29,0.297-0.377,0.454   c-0.341,0.662-0.516,1.352-0.677,2.046c0.253-0.66,0.532-1.331,0.927-1.886c0.196-0.295,0.45-0.396,0.784-0.481   c0.325-0.082,0.668-0.125,1.007-0.143c0.169-0.008,0.338-0.01,0.499,0c0.083,0.004,0.155,0.012,0.232,0.024l0.26,0.041   c0.344,0.057,0.692,0.123,1.037,0.191l2.076,0.436c2.792,0.456,5.576,0.991,8.361,1.525c2.771,0.551,5.563,1.113,8.248,1.892   c0.332,0.101,0.661,0.208,0.976,0.325c0.321,0.121,0.575,0.239,0.85,0.424c0.539,0.361,1.059,0.827,1.558,1.305   c0.997,0.967,1.932,2.021,2.838,3.099c0.452,0.54,0.897,1.086,1.331,1.64c0.405,0.523,0.821,1.141,1.23,1.707l2.466,3.47   l4.928,6.943l2.452,3.476c0.018,0.026,0.032,0.048,0.05,0.073c0.138,0.197,0.257,0.39,0.356,0.578   c0.095,0.183,0.172,0.366,0.218,0.554c0.004,0.02,0.008,0.038,0.011,0.058c0.026,0.128,0.042,0.257,0.041,0.394v0.001v0.001   l0.001,0.01c0.002,0.098-0.008,0.205-0.017,0.309c-0.005,0.058-0.005,0.109-0.012,0.168c-0.057,0.468-0.188,0.969-0.302,1.416   c-0.231,0.582-0.591,1.093-1.029,1.563c-0.479,0.504-0.957,0.938-1.491,1.316l0.002-0.002c-1.133,0.799-2.326,1.502-3.556,2.203   l-1.304,0.742l1.171,0.938c0.562,0.451,1.088,0.947,1.575,1.484c0.482,0.539,0.896,1.084,1.173,1.674   c0.134,0.293,0.219,0.568,0.241,0.83l0.005,0.125c0.002,0.213-0.043,0.445-0.111,0.781c-0.139,0.613-0.443,1.219-0.862,1.697   l-0.004,0.004c-0.528,0.617-1.472,1.721-1.484,1.738l-1.902,1.127l-3.986,2.391c-1.339,0.781-2.618,1.652-3.926,2.48l-3.914,2.5   l-7.79,4.982c-0.467,0.211-0.954,0.412-1.437,0.582c-0.5,0.17-0.985,0.33-1.443,0.363c-0.487,0.033-1.023,0.004-1.55-0.033   c-0.525-0.037-1.056-0.096-1.574-0.162l-11.381-2.541l-2.855-0.625l-1.431-0.313l-0.719-0.148l-0.369-0.072l-0.109-0.018   c-0.102-0.014-0.121-0.008-0.149-0.01l-0.185-0.004c-0.491-0.014-0.99-0.018-1.496,0.006c-0.493,0.014-1.075,0.098-1.536,0.223   l-0.696,0.156c-0.114,0.023-0.226,0.043-0.33,0.061l-0.13,0.014l-0.079,0.004h-0.01h-0.002l-0.022-0.002   c-0.36-0.051-0.869-0.211-1.3-0.348l-0.021-0.008l-0.016-0.004l-10.309-2.619c-0.22-0.084-0.485-0.203-0.619-0.295l-0.008-0.059   c-0.011-0.113-0.007-0.242-0.012-0.426c-0.023-0.352-0.043-0.645-0.188-1.051l-0.088-0.18l-0.015-0.023   c-0.043-0.064-0.041-0.055-0.064-0.086l-0.087-0.088c-0.097-0.086-0.173-0.135-0.249-0.186c-0.15-0.094-0.287-0.166-0.44-0.244   l-0.046-0.023l-0.055-0.016L10.313,66.799L10.313,66.799z M89.205,60.682V60.68V60.682L89.205,60.682z M80.236,75.447   c-0.268,0.277-1.327,0.986-2.011,1.412L60.409,88.66c-0.799,0.334-2.165,0.861-2.637,0.949c-0.5,0.094-2.048,0.084-2.962,0.057   l-34.676-8.004c-0.347-0.131-1.223-0.502-1.774-0.893c-0.492-0.346-0.794-0.754-1.06-1.111c-0.102-0.139-0.195-0.268-0.289-0.379   c-1.688-2.033-4.501-8.531-5.599-11.148l12.49,3.184c0.103,0.051,0.211,0.111,0.301,0.168l0.1,0.07l0.004,0.01   c0.062,0.16,0.107,0.471,0.117,0.715c0.004,0.117-0.001,0.289,0.015,0.475c0.01,0.096,0.02,0.195,0.063,0.336   c0.022,0.064,0.059,0.162,0.142,0.262l0.162,0.156c0.361,0.256,0.622,0.344,0.941,0.475l0.018,0.008l0.033,0.008l10.327,2.625   c0.487,0.15,0.904,0.301,1.5,0.389l0.069,0.004h0.079l0.104-0.002c0.095-0.006,0.164-0.016,0.232-0.025   c0.136-0.02,0.265-0.041,0.389-0.066l0.729-0.164c0.481-0.127,0.869-0.178,1.351-0.199c0.466-0.023,0.942-0.02,1.425-0.008   l0.181,0.006l0.038,0.002l0.066,0.012l0.347,0.066l0.711,0.15l1.426,0.305l2.853,0.631l11.405,2.545l0.023,0.004l0.021,0.002   c0.553,0.072,1.094,0.131,1.648,0.17c0.557,0.041,1.105,0.07,1.702,0.033c0.629-0.047,1.183-0.238,1.706-0.42   c0.532-0.188,1.038-0.393,1.553-0.625l0.03-0.014l0.031-0.021l7.824-5.006l3.912-2.498c1.301-0.84,2.629-1.635,3.902-2.52   l3.75-2.529l-4.181,7.504C80.706,74.773,80.352,75.326,80.236,75.447z"/>
	<polygon points="89.778,64.625 89.776,64.629 89.775,64.631  "/>
	<rect x="94.788" y="48.012" width="0.004" height="0.007"/>
	<polygon points="5.839,67.211 5.837,67.207 5.835,67.207  "/>
	<path d="M65.24,50.993c-2.752-0.611-5.504-1.209-8.271-1.751c-2.762-0.557-5.538-1.049-8.33-1.477   c2.703,0.813,5.423,1.563,8.157,2.25c2.729,0.7,5.472,1.341,8.217,1.972c2.751,0.611,5.502,1.213,8.269,1.752   c2.763,0.557,5.54,1.049,8.332,1.475c-2.705-0.813-5.423-1.564-8.156-2.25C70.728,52.264,67.985,51.621,65.24,50.993z"/>
	<path d="M35.173,17.558c0.033-0.048,0.065-0.063,0.093-0.056c0.032-0.008,0.107-0.023,0.163-0.063   c0.128-0.08,0.308-0.125,0.483-0.163c0.177-0.037,0.363-0.058,0.534-0.061l0.116,0.002c0.02,0.001,0.051,0.001,0.112,0.014   l0.307,0.057c1.717,0.275,3.39,0.429,5.067,0.662c0.836,0.112,1.668,0.233,2.492,0.382c0.818,0.149,1.646,0.319,2.388,0.578   c0.295,0.097,0.624,0.336,0.922,0.58c0.149,0.124,0.293,0.256,0.411,0.386c0.11,0.106,0.181,0.251,0.273,0.432   c0.496,0.64,0.97,1.378,1.481,2.083c-0.114-0.873-0.277-1.711-0.563-2.576c-0.106-0.195-0.255-0.418-0.437-0.621   c-0.167-0.184-0.337-0.339-0.515-0.487c-0.357-0.285-0.718-0.571-1.228-0.756c-0.862-0.299-1.704-0.464-2.553-0.622   c-0.847-0.151-1.693-0.275-2.539-0.389c-1.685-0.233-3.394-0.394-5.026-0.657l-0.319-0.059c-0.042-0.009-0.116-0.017-0.202-0.023   c-0.079-0.006-0.135-0.004-0.202-0.005c-0.253,0.004-0.489,0.034-0.729,0.083c-0.239,0.047-0.471,0.123-0.727,0.223   c-0.131,0.058-0.247,0.143-0.368,0.28c-0.133,0.149-0.213,0.32-0.25,0.472c-0.11,0.547-0.04,0.964,0.02,1.408   c0.066,0.433,0.167,0.856,0.283,1.273c0.045-0.429,0.108-0.855,0.18-1.27C34.922,18.265,35.012,17.818,35.173,17.558z"/>
	<path d="M59.137,26.252c3.67,0.644,7.338,1.296,11.013,1.91c0.84,0.238,1.682,0.488,2.517,0.749   c0.835,0.271,1.691,0.531,2.47,0.866c0.361,0.162,0.719,0.417,1.069,0.673c0.349,0.259,0.69,0.535,1.029,0.815   c0.673,0.563,1.342,1.14,1.991,1.733c1.571,1.85,3.126,3.711,4.717,5.544c-1.45-1.955-2.934-3.88-4.405-5.817l-0.006-0.008   l-0.013-0.011c-0.63-0.631-1.267-1.252-1.934-1.846c-0.333-0.296-0.672-0.59-1.025-0.872c-0.354-0.278-0.712-0.563-1.153-0.781   c-0.838-0.395-1.671-0.684-2.516-0.978c-0.846-0.29-1.688-0.564-2.541-0.83l-0.014-0.004L70.31,27.39   c-3.662-0.724-7.33-1.41-10.998-2.103L48.3,23.272l-11.027-1.943c-3.679-0.627-7.359-1.247-11.045-1.842l-0.017-0.003h-0.007   c-0.55-0.038-1.093-0.057-1.648-0.036c-0.271,0.012-0.569,0.03-0.855,0.11c-0.297,0.076-0.614,0.271-0.767,0.58   c-0.153,0.301-0.171,0.605-0.158,0.898c0.042,0.339,0.161,0.581,0.282,0.837c0.25,0.501,0.546,0.956,0.865,1.406l0.005,0.006   l0.003,0.003c1.244,1.438,2.489,2.875,3.751,4.297c-1.151-1.51-2.321-3.004-3.492-4.498c-0.294-0.44-0.572-0.902-0.793-1.376   c-0.106-0.23-0.205-0.494-0.222-0.694c-0.005-0.243,0.031-0.499,0.134-0.676c0.194-0.371,0.735-0.407,1.258-0.411   c0.521,0,1.056,0.032,1.579,0.079c3.654,0.742,7.313,1.46,10.973,2.17l11.003,2.073L59.137,26.252z"/>
	<path d="M53.037,76.258c2.769,0.535,5.6,0.826,8.445,0.572c1.416-0.141,2.82-0.41,4.179-0.822c1.357-0.426,2.692-0.92,3.914-1.723   c4.673-3.025,9.311-6.107,13.911-9.244c-4.811,2.805-9.591,5.66-14.332,8.572c-0.559,0.371-1.177,0.631-1.811,0.887   c-0.632,0.248-1.277,0.469-1.933,0.654c-1.311,0.371-2.657,0.607-4.014,0.719c-2.708,0.213-5.473-0.074-8.157-0.615l-8.12-1.867   l-8.146-1.83c-5.433-1.209-10.883-2.355-16.346-3.434c5.372,1.465,10.76,2.869,16.164,4.209   C42.199,73.684,47.587,74.99,53.037,76.258z"/>
	<path d="M32.945,52.718c0.467-0.231,0.938-0.452,1.412-0.645c0.473-0.2,0.939-0.351,1.443-0.478   c0.995-0.254,2.021-0.414,3.051-0.533c2.07-0.237,4.136-0.273,6.185,0.036c4.136,0.618,8.261,1.56,12.382,2.442l12.37,2.725   c-4.032-1.26-8.099-2.416-12.193-3.466c-2.046-0.532-4.102-1.027-6.165-1.491c-2.065-0.468-4.141-0.891-6.253-1.208   c-1.051-0.162-2.153-0.251-3.229-0.231c-1.077,0.012-2.148,0.088-3.215,0.225c-1.063,0.139-2.122,0.342-3.168,0.637   c-0.516,0.143-1.054,0.33-1.546,0.554c-0.496,0.223-0.973,0.469-1.443,0.725c-3.73,2.064-7.168,4.533-10.539,7.084   c1.801-1.109,3.584-2.236,5.406-3.299C29.253,54.715,31.077,53.654,32.945,52.718z"/>
	<path d="M47.91,31.171c0.306,0.218,0.626,0.405,0.946,0.589c0.643,0.364,1.3,0.697,1.974,0.997c0.345,0.15,0.676,0.279,1.063,0.386   c0.359,0.089,0.715,0.165,1.072,0.245l4.287,0.905c5.718,1.191,11.447,2.325,17.179,3.444l-17.114-3.748l-4.271-0.954   c-0.354-0.083-0.712-0.163-1.061-0.254c-0.317-0.089-0.649-0.272-0.974-0.417c-0.652-0.309-1.291-0.653-1.909-1.022   c-0.624-0.382-1.201-0.755-1.715-1.258c-0.524-0.493-1.022-1.023-1.518-1.555l-2.998-3.19c0.832,1.205,1.74,2.352,2.682,3.476   c0.481,0.552,0.974,1.095,1.501,1.617C47.314,30.686,47.602,30.953,47.91,31.171z"/>
	<path d="M46.565,65.35c-0.359-0.072-0.716-0.143-1.082-0.203c-0.396-0.057-0.752-0.072-1.126-0.074   c-0.739,0.006-1.474,0.049-2.209,0.123c-0.367,0.043-0.735,0.084-1.104,0.162s-0.739,0.207-1.08,0.338   c-0.69,0.268-1.359,0.568-2.022,0.881c-1.311,0.654-2.604,1.34-3.849,2.111l4.025-1.725c0.666-0.287,1.336-0.576,2.013-0.816   c0.672-0.258,1.352-0.367,2.074-0.467c0.715-0.09,1.439-0.148,2.16-0.172c0.355-0.004,0.732-0.041,1.06,0.008   c0.354,0.055,0.714,0.123,1.071,0.188l4.297,0.836l17.186,3.412c-5.702-1.266-11.405-2.52-17.122-3.717L46.565,65.35z"/>
</g>
<text x="0.0" y="117.5" font-size="5.0" font-weight="bold" font-family="Helvetica Neue, Helvetica, Arial-Unicode, Arial, Sans-serif" fill="#000000">Created by Stefan Kovac</text><text x="0.0" y="122.5" font-size="5.0" font-weight="bold" font-family="Helvetica Neue, Helvetica, Arial-Unicode, Arial, Sans-serif" fill="#000000">from the Noun Project</text></svg>