<svg xmlns="http://www.w3.org/2000/svg" xmlns:xlink="http://www.w3.org/1999/xlink" version="1.1" id="icon" x="0px" y="0px" width="100px" height="100px" viewBox="5.0 -10.0 100.0 135.0" enable-background="new 0 0 100 100" xml:space="preserve">
<g id="Capa_4">
	<g>
		<path d="M77.298,25.162c-3.644-0.89-7.317,1.344-8.206,4.987c-0.891,3.644,1.346,7.315,4.985,8.204    c3.651,0.894,7.323-1.333,8.211-4.977C83.182,29.729,80.954,26.058,77.298,25.162z"/>
		<path d="M73.689,40.483c-1.01-0.418-2.064-0.507-3.07-0.353l-0.006-0.035l-10.947,1.711l-6.848-5.797    c0.58-0.324,1.07-0.819,1.326-1.414l0.672-1.551l9.389,1.119c0,0,0.503-0.388,0.936-1.563c0.433-1.178,0.262-1.722,0.262-1.722    L41.359,15.055c-1.595,2.158-2.917,4.58-3.886,7.23c-1.022,2.802-1.583,5.661-1.715,8.491l9.228,1.101l0.275,1.637    c0.176,1.048,1.009,1.988,2.013,2.357c0.196,0.069,0.397,0.12,0.604,0.145l0.634,0.077l-0.818,0.835l8.968,9.979    c0.54,0.529,1.265,0.819,2.009,0.819c0.138,0,0.272-0.01,0.407-0.029l10.963-1.576l-5.529,1.481l-5.349,12.867    c-0.031,0.081-0.042,0.164-0.069,0.244L49.448,75.68c-0.47,0.723-0.667,1.586-0.553,2.438l2.091,15.646l7.119-0.953l-1.912-14.321    l7.731-11.64l-2.094,3.885l-0.847,7.998c-0.032,0.521,0.043,1.045,0.229,1.533L66.876,95l6.705-2.574l-5.373-13.994l1.429-13.273    c0.043-0.096,0.1-0.182,0.139-0.278l7.019-16.883C78.008,45.063,76.619,41.701,73.689,40.483z M42.173,19.313l0.695-1.135    L62.42,30.954L42.173,19.313z M48.036,34.697c-0.667-0.081-1.353-0.735-1.465-1.4l-0.21-1.258l7.079,0.844l-0.514,1.185    c-0.201,0.469-0.719,0.851-1.248,0.974l-1.17-0.989l-0.826,0.845L48.036,34.697z"/>
		<path d="M40.8,15.028c0.192-0.258,0.14-0.625-0.122-0.816c-0.256-0.193-0.625-0.138-0.815,0.121    c-1.667,2.248-3.002,4.732-3.97,7.377c-1.022,2.799-1.614,5.716-1.749,8.663c-0.013,0.265,0.152,0.492,0.381,0.579    c0.06,0.019,0.116,0.031,0.174,0.034c0.323,0.015,0.597-0.234,0.612-0.556c0.135-2.833,0.698-5.63,1.679-8.318    C37.92,19.569,39.202,17.185,40.8,15.028z"/>
		<path d="M64.803,34.051c-0.238,0.202-0.281,0.567-0.08,0.816c0.07,0.087,0.159,0.148,0.258,0.183    c0.177,0.068,0.386,0.043,0.549-0.083c0.063-0.051,0.65-0.528,1.125-1.826c0.474-1.294,0.313-1.969,0.275-2.089    c-0.09-0.309-0.418-0.484-0.728-0.393c-0.304,0.09-0.478,0.405-0.396,0.708c0.006,0.035,0.072,0.476-0.252,1.372    C65.201,33.706,64.809,34.045,64.803,34.051z"/>
		<path d="M33.909,15.208c-0.186,0.051-0.411,0.115-0.671,0.188c-0.264,0.07-0.569,0.145-0.844,0.334    c-0.291,0.162-0.608,0.342-0.938,0.552c-0.354,0.176-0.615,0.499-0.928,0.786c-0.289,0.31-0.659,0.58-0.868,0.982    c-0.242,0.378-0.488,0.762-0.732,1.147c-0.157,0.429-0.315,0.858-0.469,1.28c-0.19,0.411-0.183,0.867-0.251,1.284    c-0.039,0.426-0.137,0.82-0.063,1.224c0.034,0.396,0.085,0.766,0.134,1.1c0.02,0.342,0.143,0.611,0.245,0.855    c0.099,0.244,0.185,0.457,0.255,0.632c0.146,0.35,0.246,0.546,0.246,0.546s0.004-0.22-0.019-0.598    c0.003-0.37-0.124-0.933-0.045-1.547c0.033-0.308,0.068-0.632,0.084-0.97c-0.018-0.335,0.151-0.694,0.21-1.06    c0.092-0.365,0.138-0.752,0.316-1.107c0.145-0.363,0.293-0.733,0.44-1.104c0.205-0.34,0.409-0.682,0.609-1.017    c0.177-0.355,0.454-0.628,0.689-0.922c0.256-0.271,0.434-0.617,0.72-0.815c0.267-0.224,0.512-0.45,0.739-0.664    c0.45-0.436,0.927-0.658,1.229-0.888c0.309-0.212,0.488-0.352,0.488-0.352S34.279,15.112,33.909,15.208z"/>
		<path d="M29.927,11.893c0.802-0.598,1.515-1.076,2.052-1.332c0.528-0.278,0.831-0.457,0.831-0.457s-0.334,0.076-0.92,0.238    c-0.298,0.074-0.647,0.191-1.035,0.361c-0.4,0.154-0.854,0.326-1.303,0.604c-0.474,0.24-0.958,0.545-1.438,0.92    c-0.513,0.335-0.961,0.799-1.458,1.247c-0.434,0.505-0.939,0.985-1.314,1.581c-0.428,0.56-0.757,1.196-1.113,1.815    c-0.276,0.66-0.583,1.307-0.767,1.987c-0.244,0.66-0.321,1.354-0.46,2.005c-0.053,0.666-0.146,1.304-0.104,1.915    c-0.005,0.608,0.049,1.181,0.144,1.7c0.05,0.525,0.191,0.997,0.31,1.408c0.105,0.417,0.221,0.76,0.343,1.037    c0.224,0.56,0.369,0.875,0.369,0.875s-0.042-0.344-0.144-0.938c-0.063-0.295-0.111-0.657-0.129-1.068    c-0.032-0.41-0.074-0.862-0.059-1.369c-0.017-0.502,0.01-1.042,0.067-1.61c0.013-0.572,0.178-1.157,0.252-1.769    c0.162-0.597,0.29-1.22,0.522-1.827c0.182-0.621,0.48-1.209,0.74-1.808c0.319-0.572,0.604-1.166,0.989-1.688    c0.343-0.548,0.759-1.031,1.136-1.523c0.44-0.43,0.808-0.914,1.252-1.272C29.104,12.534,29.518,12.185,29.927,11.893z"/>
		<path d="M25.249,8.764c0.301-0.264,0.593-0.521,0.875-0.771c0.305-0.22,0.602-0.432,0.884-0.637    c0.562-0.425,1.114-0.751,1.604-1.049c0.482-0.315,0.923-0.555,1.302-0.719C30.654,5.214,31.082,5,31.082,5    s-0.459,0.135-1.261,0.371c-0.405,0.111-0.882,0.287-1.414,0.534c-0.542,0.228-1.159,0.479-1.768,0.879    c-0.312,0.187-0.637,0.379-0.973,0.58c-0.315,0.232-0.644,0.472-0.979,0.719c-0.7,0.466-1.313,1.107-1.987,1.725    c-0.588,0.697-1.274,1.365-1.787,2.182c-0.584,0.769-1.032,1.642-1.517,2.493c-0.381,0.902-0.803,1.787-1.061,2.718    c-0.335,0.907-0.45,1.855-0.647,2.746c-0.081,0.912-0.215,1.787-0.163,2.627c0.008,0.416,0.015,0.821,0.022,1.213    c0.044,0.389,0.09,0.765,0.13,1.127c0.051,0.722,0.226,1.373,0.376,1.941c0.128,0.579,0.275,1.061,0.431,1.446    c0.299,0.779,0.469,1.225,0.469,1.225s-0.089-0.47-0.243-1.288c-0.1-0.406-0.177-0.906-0.22-1.476    c-0.059-0.569-0.134-1.2-0.136-1.905c-0.01-0.348-0.02-0.712-0.032-1.089c0.026-0.375,0.053-0.763,0.08-1.163    c0.016-0.798,0.239-1.621,0.334-2.476c0.219-0.84,0.388-1.718,0.712-2.567c0.25-0.874,0.664-1.698,1.03-2.542    c0.45-0.803,0.852-1.634,1.395-2.365c0.48-0.771,1.072-1.44,1.608-2.122C24.105,9.934,24.624,9.261,25.249,8.764z"/>
	</g>
</g>
<text x="0.0" y="117.5" font-size="5.0" font-weight="bold" font-family="Helvetica Neue, Helvetica, Arial-Unicode, Arial, Sans-serif" fill="#000000">Created by Juan Pablo Bravo</text><text x="0.0" y="122.5" font-size="5.0" font-weight="bold" font-family="Helvetica Neue, Helvetica, Arial-Unicode, Arial, Sans-serif" fill="#000000">from the Noun Project</text></svg>