<svg xmlns="http://www.w3.org/2000/svg" xmlns:xlink="http://www.w3.org/1999/xlink" version="1.1" id="Capa_1" x="0px" y="0px" width="100px" height="100px" viewBox="5.0 -10.0 100.0 135.0" enable-background="new 0 0 100 100" xml:space="preserve">
<path fill="#000000" stroke="#1A171B" stroke-width="0.1287" d="M23.227,31.861c1.939-2.063,3.403-1.368,4.032-0.933  c0.363,0.173,0.733,0.431,1.146,0.69l0.233,0.19c0.673,0.604,8.26,9.234,8.26,9.234l9.949,1.066  c2.066,0.182,2.694,0.356,2.799,1.734c0.066,1.609-1.298,1.859-2.398,2.005s-7.5-0.136-9.898-0.25  c-1.591-0.035-1.78,0.044-2.556-0.343c-0.519-0.216-6.452-5.763-6.452-5.763L20.468,50.13c0.267,0.174,5.23,8.516,6.668,10.884  c1.286,1.454,1.058,5.564,1.058,5.564l-1.003,12.999c0,2.323-1.138,3.119-2.738,3.197c-1.766-0.285-2.274-0.791-2.274-3.112  c0,0,0.687-14.339,0.687-14.364c0,0-6.772-11.508-7.231-12.018c0,0-0.11,4.092-0.141,6.558c-0.029,2.463-0.128,3.149-0.929,5.302  c-0.341,0.902-5.183,13.532-5.736,15.471c-0.21,0.578-1.418,2.065-3.382,1.373c-1.963-0.689-1.318-2.941-1.318-2.941l5.438-16.144  l0.703-13.011c0.034-0.043,1.384-2.522,1.409-2.565c0.476-0.709,0.932-1.266,1.338-1.813l9.065-12.356"/>
<path fill="#000000" stroke="#1A171B" stroke-width="0.1287" d="M96.707,45.963H51.639l6.059,30.515h0.55  c0.358,1.983,2.091,3.49,4.177,3.49c2.088,0,3.82-1.507,4.179-3.49h16.467c0.358,1.983,2.089,3.49,4.177,3.49  c2.089,0,3.82-1.507,4.18-3.49h0.499L96.707,45.963z"/>
<rect x="50.467" y="43.631" fill="#000000" stroke="#1A171B" stroke-width="0.091" width="46.24" height="1.355"/>
<path fill="#000000" d="M36.218,23.851l-0.039,0.002c-0.85-1.511-2.463-2.528-4.317-2.528c-2.744,0-4.962,2.214-4.962,4.97  c0,2.742,2.218,4.958,4.962,4.958c2.695,0,4.883-2.147,4.951-4.83l2.859,0.399c0.03,0.004,0.059,0.006,0.088,0.004  c0.22-0.008,0.411-0.172,0.444-0.399C40.242,26.173,36.686,25.06,36.218,23.851z"/>
<text x="0.0" y="117.5" font-size="5.0" font-weight="bold" font-family="Helvetica Neue, Helvetica, Arial-Unicode, Arial, Sans-serif" fill="#000000">Created by DonBLC 123</text><text x="0.0" y="122.5" font-size="5.0" font-weight="bold" font-family="Helvetica Neue, Helvetica, Arial-Unicode, Arial, Sans-serif" fill="#000000">from the Noun Project</text></svg>