<svg xmlns="http://www.w3.org/2000/svg" xmlns:xlink="http://www.w3.org/1999/xlink" version="1.1" id="Layer_1" x="0px" y="0px" width="99.756px" height="99.958px" viewBox="4.9878 -9.9958 99.756 134.9433" enable-background="new 0 0 99.756 99.958" xml:space="preserve">
<g>
	<path d="M71.572,32.807c-0.032-0.151-0.111-0.282-0.171-0.42c-0.063-0.148-0.11-0.301-0.202-0.435   c-0.091-0.129-0.225-0.229-0.343-0.341c-0.104-0.1-0.179-0.222-0.302-0.303c-0.017-0.012-0.039-0.012-0.056-0.024   c-0.017-0.009-0.026-0.028-0.043-0.038l-12.612-7.567v-4.596c0-1.349-1.093-2.445-2.445-2.445h-7.897   c-1.351,0-2.444,1.096-2.444,2.445v4.5l-12.768,7.663c-0.018,0.01-0.026,0.029-0.045,0.041c-0.017,0.01-0.037,0.012-0.053,0.021   c-0.123,0.081-0.197,0.2-0.3,0.301c-0.119,0.114-0.253,0.215-0.345,0.346c-0.09,0.132-0.133,0.277-0.196,0.418   c-0.063,0.148-0.145,0.282-0.178,0.435c-0.034,0.152-0.019,0.306-0.025,0.459c-0.004,0.16-0.028,0.314-0.002,0.475   c0.027,0.155,0.104,0.3,0.161,0.451c0.052,0.135,0.067,0.279,0.145,0.408c0.013,0.021,0.033,0.035,0.045,0.057   c0.008,0.012,0.008,0.026,0.017,0.041l5.067,7.603l-3.098,55.073c-0.075,1.35,0.957,2.503,2.305,2.58   c0.046,0.004,0.094,0.004,0.139,0.004c0.124,0,0.234-0.051,0.354-0.068c0.117,0.017,0.22,0.068,0.341,0.068h30.2   c0.045,0,0.091,0,0.137-0.004c0.143-0.009,0.265-0.072,0.399-0.106c0.163-0.034,0.329-0.055,0.476-0.124   c0.142-0.062,0.251-0.162,0.375-0.249c0.131-0.094,0.272-0.175,0.382-0.292c0.102-0.11,0.169-0.245,0.251-0.369   c0.088-0.14,0.186-0.263,0.245-0.416c0.058-0.147,0.065-0.307,0.094-0.461c0.027-0.141,0.087-0.271,0.087-0.423   c0-0.025-0.016-0.046-0.016-0.072c0-0.023,0.013-0.043,0.011-0.067l-3.098-55.073l5.069-7.603c0.009-0.014,0.009-0.029,0.017-0.041   c0.014-0.022,0.034-0.036,0.046-0.057c0.076-0.127,0.09-0.266,0.141-0.399c0.06-0.155,0.137-0.303,0.164-0.463   c0.026-0.153,0.002-0.301-0.003-0.456C71.596,33.122,71.609,32.962,71.572,32.807z M64.234,95.068H38.509l2.996-53.308   c0.005-0.097-0.033-0.182-0.04-0.275c-0.007-0.169-0.027-0.333-0.072-0.499c-0.042-0.163-0.109-0.307-0.184-0.455   c-0.045-0.085-0.055-0.181-0.11-0.265l-4.096-6.149l11.601-6.962c0.591-0.355,0.971-0.923,1.114-1.549   c0.141-0.308,0.229-0.645,0.229-1.005v-3.075h3.007v3.075c0,0.041,0.022,0.077,0.024,0.117c-0.131,0.943,0.296,1.917,1.163,2.437   L65.74,34.12l-4.096,6.147c-0.055,0.084-0.065,0.18-0.11,0.265c-0.073,0.148-0.14,0.292-0.184,0.455   c-0.047,0.166-0.064,0.331-0.073,0.5c-0.006,0.096-0.043,0.176-0.039,0.273L64.234,95.068z"/>
	<path d="M9.048,12.938c0-1.349-1.094-2.445-2.444-2.445H2.445C1.095,10.493,0,11.588,0,12.938c0,1.349,1.095,2.443,2.445,2.443   h4.159C7.954,15.381,9.048,14.286,9.048,12.938z"/>
	<path d="M10.762,11.223c1.35,0,2.445-1.096,2.445-2.445V4.617c0-1.352-1.095-2.444-2.445-2.444c-1.35,0-2.444,1.093-2.444,2.444   v4.161C8.318,10.127,9.412,11.223,10.762,11.223z"/>
	<path d="M19.082,10.493h-4.159c-1.35,0-2.445,1.096-2.445,2.445c0,1.349,1.095,2.443,2.445,2.443h4.159   c1.35,0,2.445-1.095,2.445-2.443C21.527,11.588,20.432,10.493,19.082,10.493z"/>
	<path d="M10.762,14.651c-1.35,0-2.444,1.096-2.444,2.444v4.159c0,1.349,1.094,2.445,2.444,2.445c1.35,0,2.445-1.096,2.445-2.445   v-4.159C13.207,15.747,12.112,14.651,10.762,14.651z"/>
	<path d="M87.275,81.862c0-1.352-1.094-2.444-2.444-2.444h-4.16c-1.35,0-2.443,1.093-2.443,2.444s1.094,2.445,2.443,2.445h4.16   C86.182,84.307,87.275,83.213,87.275,81.862z"/>
	<path d="M86.548,73.542v4.161c0,1.351,1.094,2.444,2.445,2.444s2.444-1.094,2.444-2.444v-4.161c0-1.349-1.093-2.445-2.444-2.445   S86.548,72.193,86.548,73.542z"/>
	<path d="M97.311,79.417h-4.158c-1.351,0-2.444,1.093-2.444,2.444s1.094,2.445,2.444,2.445h4.158c1.352,0,2.445-1.094,2.445-2.445   S98.662,79.417,97.311,79.417z"/>
	<path d="M88.993,83.576c-1.352,0-2.445,1.093-2.445,2.444v4.158c0,1.352,1.094,2.445,2.445,2.445s2.444-1.094,2.444-2.445V86.02   C91.438,84.668,90.345,83.576,88.993,83.576z"/>
	<path d="M87.614,13.173c0-4.643-3.682-8.42-8.208-8.42c-4.525,0-8.207,3.777-8.207,8.42c0,4.644,3.682,8.42,8.207,8.42   C83.933,21.594,87.614,17.817,87.614,13.173z M76.089,13.173c0-1.948,1.488-3.53,3.317-3.53c1.828,0,3.318,1.583,3.318,3.53   c0,1.947-1.49,3.531-3.318,3.531C77.577,16.705,76.089,15.121,76.089,13.173z"/>
	<path d="M57.314,14.396c3.968,0,7.195-3.227,7.195-7.197C64.51,3.228,61.282,0,57.314,0c-3.971,0-7.201,3.228-7.201,7.198   C50.114,11.168,53.344,14.396,57.314,14.396z M57.314,4.889c1.272,0,2.306,1.036,2.306,2.309c0,1.272-1.033,2.308-2.306,2.308   c-1.275,0-2.312-1.036-2.312-2.308C55.003,5.925,56.039,4.889,57.314,4.889z"/>
</g>
<text x="0.0" y="117.45065" font-size="4.9979" font-weight="bold" font-family="Helvetica Neue, Helvetica, Arial-Unicode, Arial, Sans-serif" fill="#000000">Created by Cindy Hu</text><text x="0.0" y="122.44855" font-size="4.9979" font-weight="bold" font-family="Helvetica Neue, Helvetica, Arial-Unicode, Arial, Sans-serif" fill="#000000">from the Noun Project</text></svg>